<svg xmlns="http://www.w3.org/2000/svg" width="44" height="44" viewBox="0 0 44 44"><defs><style>.a{fill:#0a8edb;opacity:0.8;isolation:isolate;}.b{fill:#f7f8fa;}</style></defs><g transform="translate(-1041 -97)"><path class="a" d="M1085,97h-44v44h44Z"/><path class="b" d="M1053.1,124.278s4.45-.652,5.45-3.262c0,0-3.74-2.49-2.19-5.633a3.823,3.823,0,0,0,3.56,1.6,5.157,5.157,0,0,1,.61-1.952,5.266,5.266,0,0,1,1.33-1.559,5.153,5.153,0,0,1,3.87-1.055,6.044,6.044,0,0,1,4.27,3.2l2.67-.178-1.72,1.6,1.72,1.957-2.55-.381s.11,4.868-6.14,6.681a5.276,5.276,0,0,1-.89.17A21.994,21.994,0,0,1,1053.1,124.278Z"/></g></svg>